<?xml version="1.0" encoding="utf-8"?>
<!-- Generator: Adobe Adobe Illustrator 24.2.0, SVG Export Plug-In . SVG Version: 6.00 Build 0)  -->
<svg version="1.1" id="Layer_1" xmlns="http://www.w3.org/2000/svg" xmlns:xlink="http://www.w3.org/1999/xlink" x="0px" y="0px"
	 width="1744.98px" height="1744.98px" viewBox="0 0 1744.98 1744.98" style="enable-background:new 0 0 1744.98 1744.98;"
	 xml:space="preserve">
<style type="text/css">
	.st0{fill:#F4F4F4;stroke:#000000;stroke-width:6.5383;stroke-miterlimit:10;}
	.st1{fill:#120B0B;stroke:#000000;stroke-width:4.4098;stroke-miterlimit:10;}
	.st2{fill:#FFFFFF;}
	.st3{fill:#1F1212;}
	.st4{stroke:#000000;stroke-width:5.6029;stroke-miterlimit:10;}
	.st5{fill:#FFFFFF;stroke:#000000;stroke-width:3.9979;stroke-miterlimit:10;}
	.st6{fill:#C4C4C4;}
	.st7{fill:#FFFFFF;stroke:#C4C4C4;stroke-width:0.7487;stroke-miterlimit:10;}
	.st8{opacity:0.3294;}
	.st9{fill:#C9C9C9;stroke:#FFFFFF;stroke-width:4;stroke-miterlimit:10;}
	.st10{fill:#FFFFFF;stroke:#FFFFFF;stroke-width:6.7737;stroke-linecap:round;stroke-miterlimit:10;}
	.st11{stroke:#000000;stroke-width:6.7737;stroke-linecap:round;stroke-miterlimit:10;}
	.st12{fill:#F0E6E8;}
	.st13{fill:#F0E9E9;}
	.st14{fill:#1F1F24;}
</style>
<g>
	<g>
		<path class="st11" d="M916.78,817.27v21.96h65.58v4.45H921.7c22.42,11.37,48.07,27.03,61.28,38.09l-2.46,4.3
			c-13.82-11.83-40.7-28.72-63.74-40.24v36.4h44.08v59.29h-4.61v-5.84h-81.1v6.3h-4.45v-59.75h41.47v-37.48
			c-15.05,16.59-41.78,32.71-62.36,40.39c-0.92-1.23-2.15-2.92-3.38-3.84c20.58-6.91,46.23-21.81,60.98-37.63h-59.9v-4.45h64.66
			v-21.35c-17.05,1.84-35.02,3.23-51.45,4.15c-0.15-1.23-0.77-2.76-1.38-3.84c35.63-2.3,79.71-6.6,101.37-12.59l4.45,3.53
			C952.72,812.36,935.52,815.12,916.78,817.27z M947.2,911.12h-72.03v20.12h81.1v-44.39h-81.1v19.81h72.03V911.12z"/>
		<path class="st11" d="M1027.52,863.04l-2.46,3.84c-5.68-5.38-17.2-12.59-26.88-16.9l2.76-3.38
			C1010.63,850.76,1021.99,857.82,1027.52,863.04z M1027.83,886.85l3.53,2.76c-6.91,15.97-17.05,36.4-24.88,49.92l-3.84-3.07
			C1010.01,924.63,1020.46,903.59,1027.83,886.85z M1034.59,823.57l-2.76,3.69c-5.38-5.84-16.43-13.67-25.96-18.58l2.92-3.07
			C1018.31,810.36,1029.37,817.89,1034.59,823.57z M1108.62,824.34h26.11v4.45h-26.11v24.27h30.1v4.61h-31.18
			c7.07,15.05,19.97,29.34,33.02,35.63c-0.92,0.92-2.46,2.46-3.23,3.53c-13.52-7.53-26.88-23.19-34.4-39.17h-35.02
			c-7.83,15.97-21.96,31.95-34.4,40.09c-0.77-1.23-2.15-2.61-3.38-3.38c11.98-7.07,25.5-21.96,33.18-36.71h-31.79v-4.61h29.49
			v-24.27h-22.58v-4.45h22.58v-20.58h4.45v20.58h38.55v-20.58h4.61V824.34z M1112.92,908.05h-52.22v21.35
			c0,4.76,1.84,5.99,11.98,5.99c4.76,0,32.87,0,39.47,0c8.14,0,9.52-2.61,10.14-19.05c1.38,1.08,3.07,1.69,4.61,2.15
			c-0.92,17.05-2.76,21.5-14.74,21.5c-3.07,0-36.09,0-39.01,0c-13.21,0-16.9-1.69-16.9-10.75v-52.37h56.68V908.05z M1060.7,903.44
			h47.77v-22.12h-47.77V903.44z M1065.46,853.06h38.55v-24.27h-38.55V853.06z"/>
		<path class="st11" d="M1196.63,835.7l0.77,3.99c-14.74,5.22-29.95,10.6-41.62,14.59l-1.84-4.15
			C1164.99,846.76,1180.81,841.23,1196.63,835.7z M1158.54,941.22c-0.46-0.77-2.3-2.92-3.38-3.84c15.36-3.53,33.94-9.22,45.62-15.36
			l4.15,2C1192.63,930.62,1173.44,937.23,1158.54,941.22z M1196.78,820.65l-2,3.99c-7.22-4.15-21.2-9.83-32.25-13.21l2.3-3.38
			C1175.74,811.28,1189.41,816.51,1196.78,820.65z M1271.43,918.49h-97.07v-61.44h97.07V918.49z M1266.97,875.79v-14.28h-88.01
			v14.28H1266.97z M1266.97,894.84V880.4h-88.01v14.44H1266.97z M1266.97,914.04v-14.74h-88.01v14.74H1266.97z M1221.36,815.74
			h60.21l1.08-0.31l3.38,1.54c-4.61,7.53-10.6,15.67-16.43,20.43l-4.15-2.15c4.61-3.69,9.52-9.37,13.06-14.9h-60.52
			c-3.99,5.07-8.91,9.83-14.9,14.13c-0.92-0.92-2.46-2.15-3.69-2.61c11.83-8.14,19.81-19.2,23.81-28.41l4.61,0.61
			C1226.12,807.9,1223.97,811.9,1221.36,815.74z M1243.32,826.18c7.99,13.21,24.88,23.96,43.16,27.8c-0.92,0.92-2.15,2.61-2.92,3.84
			c-17.51-4.61-33.33-14.74-42.08-27.49c-6.45,12.44-21.2,21.04-39.63,24.73c-0.31-0.92-1.23-2.76-1.69-3.69
			c19.66-4.15,35.94-13.98,39.47-29.34l4.76,0.46L1243.32,826.18z M1289.4,937.69l-4.15,3.38c-10.75-4.76-28.26-10.6-46.23-15.67
			l3.38-3.07C1259.91,926.94,1278.03,932.93,1289.4,937.69z"/>
		<path class="st11" d="M1362.05,834.78h-54.68v-4.61h54.68V834.78z M1355.9,888.85v43.01h-38.09v7.99h-4.45v-50.99h4.45H1355.9z
			 M1355.9,853.98h-42.24v-4.45h42.24V853.98z M1355.9,873.49h-42.24v-4.45h42.24V873.49z M1317.81,927.24h33.48v-33.79h-33.48
			V927.24z M1340.24,821.88l-3.99,2.76c-2.15-5.22-7.22-13.52-11.52-19.35l3.53-2.3C1332.86,808.98,1337.78,816.81,1340.24,821.88z
			 M1428.24,813.13c-0.15,74.18-1.08,117.96,10.75,120.42c1.08,0.15,2.46-9.22,3.07-21.5c1.23,0.77,3.07,1.38,3.99,1.84
			c-0.92,20.89-3.23,25.8-8.14,24.27c-15.36-3.69-14.28-49.61-14.28-120.57h-32.71v50.53h25.96v4.61h-25.96v68.96h-4.45v-68.96
			h-24.57v-4.61h24.57v-50.53h-23.19v-4.45h62.36H1428.24z"/>
	</g>
	<g>
		<path d="M319.62,802.99v57.46h76.05v-57.46h20.7v139h-20.7v-62.95h-76.05v62.95h-20.7v-139H319.62z"/>
		<path d="M452.49,802.99v60.84h15l54.08-60.84h24.29l-60.42,68.02v0.63l68.87,70.34h-28.1l-59.57-60.84h-14.15v60.84h-20.7v-139
			H452.49z"/>
		<path d="M583.67,802.99v139h-20.7v-139H583.67z"/>
	</g>
	<g>
		<path d="M688.67,832.64c5.33-6.88,10.62-13.65,15.89-20.42c3.24-4.16,6.47-8.33,9.71-12.5c1.74-2.23,3.91-3.83,6.8-4.03
			c4.7-0.33,8.72,3.53,8.72,8.32c0.02,13.97,0.01,27.94,0.01,41.91c0,4.04,0.27,8.1-0.06,12.11c-0.37,4.56,3.7,8.16,8.21,8.07
			c9-0.17,18.01-0.08,27.01-0.05c3.65,0.01,5.93,1.71,7.18,5.05c1.1,2.93-0.32,5.22-1.93,7.36c-2.44,3.25-5.06,6.37-7.58,9.57
			c-4.29,5.44-8.57,10.88-12.84,16.34c-3.17,4.05-6.31,8.12-9.45,12.19c-2.52,3.25-5.02,6.52-7.54,9.77
			c-4.46,5.74-8.92,11.47-13.38,17.2c-1,1.29-1.88,2.7-3.03,3.83c-2.12,2.08-4.76,2.42-7.41,1.31c-2.12-0.89-3.15-2.77-3.24-5.07
			c-0.05-1.31-0.02-2.62-0.02-3.93c-0.01-16.15-0.02-32.31,0-48.46c0-3.06-1.09-5.5-3.67-7.23c-1.5-1-3.18-1.36-4.94-1.36
			c-10.42-0.01-20.85-0.02-31.27-0.01c-2.56,0-4.88-0.59-6.53-2.7c-2.39-3.06-2.32-6.95,0.26-10.24
			c6.17-7.88,12.38-15.72,18.57-23.59C681.64,841.65,685.12,837.2,688.67,832.64z M713.9,842.41c0-4.53,0-9.07,0-13.6
			c-0.21-0.06-0.41-0.13-0.62-0.19c-9.44,12.39-19.07,24.64-28.38,37.1c0.87,0.77,1.5,0.62,2.08,0.62c3.22-0.02,6.43-0.07,9.65-0.09
			c4.68-0.03,9.37-0.06,14.05-0.08c1.7-0.01,2.8-0.74,3.05-2.5c0.1-0.7,0.17-1.41,0.17-2.11
			C713.91,855.29,713.9,849.01,713.9,842.41z M725.61,909.05c6.72-8.68,13.43-17.36,20.37-26.32c-2.42-0.46-4.36-0.36-6.31-0.33
			c-5.29,0.07-10.58,0.13-15.87,0.05c-2.57-0.04-3.45,0.64-3.44,3.27c0.01,1.91,0.19,3.82,0.12,5.72
			c-0.29,7.31-0.05,14.61-0.14,21.92c-0.01,0.55-0.19,1.22,0.71,1.63C722.51,913.08,723.98,911.15,725.61,909.05z"/>
	</g>
</g>
</svg>
