<?xml version="1.0" encoding="utf-8"?>
<!-- Generator: Adobe Adobe Illustrator 24.2.0, SVG Export Plug-In . SVG Version: 6.00 Build 0)  -->
<svg version="1.1" id="Layer_1" xmlns="http://www.w3.org/2000/svg" xmlns:xlink="http://www.w3.org/1999/xlink" x="0px" y="0px"
	 width="1500px" height="1500px" viewBox="0 0 1500 1500" style="enable-background:new 0 0 1500 1500;" xml:space="preserve">
<style type="text/css">
	.st0{fill:#FFFFFF;}
	.st1{fill:#F4F4F4;stroke:#000000;stroke-width:6.5243;stroke-miterlimit:10;}
	.st2{fill:#1F1212;stroke:#000000;stroke-width:6.5243;stroke-miterlimit:10;}
	.st3{fill:#FFFFFF;stroke:#000000;stroke-width:6.5243;stroke-miterlimit:10;}
	.st4{fill:#1F1212;}
	.st5{fill:#F4F4F4;}
	.st6{fill:#CFCFCF;stroke:#000000;stroke-width:6.5243;stroke-miterlimit:10;}
	.st7{fill:#080707;}
	.st8{fill:#1F1212;stroke:#000000;stroke-width:3.9979;stroke-miterlimit:10;}
	.st9{fill:#FFFFFF;stroke:#000000;stroke-width:3.9979;stroke-miterlimit:10;}
	.st10{stroke:#C4C4C4;stroke-miterlimit:10;}
	.st11{fill:#CFCFCF;stroke:#000000;stroke-width:4.4058;stroke-miterlimit:10;}
	.st12{stroke:#000000;stroke-width:4.4058;stroke-miterlimit:10;}
	.st13{fill:#FAFAFA;stroke:#000000;stroke-width:4.4058;stroke-miterlimit:10;}
	.st14{fill:#C4C4C4;}
	.st15{fill:#FFFFFF;stroke:#C4C4C4;stroke-miterlimit:10;}
	.st16{fill:#020B15;stroke:#000000;stroke-width:4.0365;stroke-miterlimit:10;}
	.st17{fill:url(#SVGID_1_);stroke:#000000;stroke-width:4.0365;stroke-miterlimit:10;}
	.st18{fill:#FFFFFF;stroke:#C4C4C4;stroke-width:0.9146;stroke-miterlimit:10;}
	.st19{fill:#1F1212;stroke:#000000;stroke-width:4.0365;stroke-miterlimit:10;}
	.st20{fill:none;stroke:#1F1212;stroke-width:27;stroke-linecap:round;stroke-miterlimit:10;}
	.st21{fill:#FFFFFF;stroke:#C4C4C4;stroke-width:0.7487;stroke-miterlimit:10;}
	.st22{fill:#FFFFFF;stroke:#C4C4C4;stroke-width:1.0956;stroke-miterlimit:10;}
</style>
<g>
	<path class="st0" d="M81.98,502.26c-0.03-15.33,3.43-18.46,20.14-18.48c39.23-0.06,78.46-0.06,117.69-0.03
		c15.37,0.01,19.14,3.27,18.89,17.39l0.24,149.33c-0.99,20.23,5.13,25.17,27.05,25.17c59.41,0.01,118.81,0.02,178.22-0.01
		c16.83-0.01,23.78-6.18,23.8-21.32l0.06-151.4c0.01-16.15,3.18-19.13,20.59-19.15c41.1-0.04,82.2-0.04,123.3,0.03
		c14.44,0.03,19,3.95,19,16.68l-0.01,499.64c0,12.4-4.27,16.13-18.27,16.16c-42.22,0.08-84.44,0.06-126.66-0.04
		c-13.85-0.03-17.81-3.78-17.95-16.35c-0.1-8.75,0.19-17.5-0.15-26.24c-0.34-8.88-4.39-11.41-13.77-8.65
		c-18.71,5.51-37.31,11.34-56.02,16.88c-31.01,9.19-62.07,18.26-93.1,27.39c-3.31,0.97-6.81,1.8-8.92-1.57
		c-2.22-3.56-1.58-7.13,1.31-10.33c9.57-10.58,131.84-144.91,160.82-176c3.54-3.79,7.12-7.26,4.72-12.42
		c-2.72-5.83-8.51-6.9-14.87-6.9L264.28,802c-19.42,0.09-26.05,5.84-25.38,22.93l0.91,162.48c0.25,28.23-0.58,28.83-31.69,28.84
		l-106.48-0.02c-16.52-0.03-19.31-2.73-19.47-17.76L81.98,502.26z"/>
	<path class="st0" d="M844.19,673.31c0.01,3.68,0.18,7.41,0.8,11.04c0.73,4.3,3.58,7.7,8.27,8.69c4.5,0.95,7.85-2.18,10.4-4.89
		c30.29-32.16,60.29-64.55,90.61-96.69c31.53-33.43,63.32-66.66,95.03-99.95c4.79-5.02,10.33-7.95,18.35-7.9
		c44.1,0.28,88.19,0.07,132.29,0.14c4.65,0.01,10.02-1.2,12.83,3.93c3.01,5.49-1.31,8.84-4.63,12.38
		c-48.55,51.67-97.19,103.28-145.69,154.98c-19.89,21.2-39.22,42.83-59.41,63.79c-7.28,7.56-7.09,13.52-0.54,21.17
		c0,0,215.44,257.56,217.1,259.8c7.53,10.2,4.35,16.25-9.63,16.33c-51.57,0.29-103.14-0.03-154.71,0.24
		c-10.99,0.06-15.69-7.18-20.78-13.23c-30.3-36.06-59.9-72.6-90.08-108.74c-27.02-32.36-54.48-64.43-81.79-96.6
		c-1.81-2.13-4.02-3.99-5.97-6.02c-5.48-5.71-9.38-3.07-11.25,2.4c-1.39,4.06-1.19,8.63-1.2,12.98l-0.02,190.81
		c0,15.78-2.77,18.32-19.9,18.33c-38.87,0.02-77.73,0.05-116.6-0.03c-16.53-0.03-19.84-3.02-19.85-17.62l0-495.71
		c0-15.15,4.4-19.16,21.15-19.19c38.49-0.06,76.98-0.07,115.48-0.02c15.95,0.02,19.66,3.41,19.69,17.93L844.19,673.31z"/>
	<path class="st0" d="M1314.21,1016.25c-11.2,0-21.29,0.09-31.37-0.02c-14.92-0.16-16.62-1.67-16.62-15.2
		c-0.02-155.88-0.03-461.95,0.05-502.45c0.02-12.33,2.67-14.77,16.4-14.8c38.84-0.09,77.68-0.08,116.52-0.01
		c13.85,0.03,18.83,4.52,18.83,17.02l0.01,498.41c0,13-4.35,16.95-18.67,17.01C1371.35,1016.33,1343.34,1016.25,1314.21,1016.25z"/>
</g>
</svg>
