<?xml version="1.0" standalone="no"?>
<!DOCTYPE svg PUBLIC "-//W3C//DTD SVG 20010904//EN"
 "http://www.w3.org/TR/2001/REC-SVG-20010904/DTD/svg10.dtd">
<svg version="1.0" xmlns="http://www.w3.org/2000/svg"
 width="260.000000pt" height="260.000000pt" viewBox="0 0 260.000000 260.000000"
 preserveAspectRatio="xMidYMid meet">
<metadata>
Created by potrace 1.11, written by Peter Selinger 2001-2013
</metadata>
<g transform="translate(0.000000,260.000000) scale(0.100000,-0.100000)"
fill="#000000" stroke="none">
<path d="M1100 2585 c-562 -89 -1002 -530 -1084 -1088 -95 -634 274 -1234 879
-1432 682 -224 1417 149 1640 830 224 682 -149 1417 -830 1640 -186 61 -414
80 -605 50z m452 -45 c505 -103 886 -490 994 -1010 22 -104 25 -331 5 -440
-46 -260 -172 -503 -357 -686 -186 -185 -425 -309 -684 -355 -96 -17 -324 -17
-420 0 -259 46 -502 172 -685 356 -182 183 -292 390 -350 660 -26 121 -24 350
4 482 53 254 169 470 347 647 301 302 729 431 1146 346z"/>
<path d="M1165 2511 c-3 -6 -23 -12 -43 -12 -20 -1 -30 -3 -21 -6 22 -6 31
-40 12 -47 -17 -7 -45 17 -41 35 2 7 -4 14 -13 16 -15 4 -15 -3 -2 -79 8 -45
16 -85 18 -87 3 -2 11 2 19 8 8 7 38 14 65 15 28 1 53 5 56 7 2 3 -1 38 -8 79
-12 69 -27 95 -42 71z m6 -34 c-10 -9 -11 -8 -5 6 3 10 9 15 12 12 3 -3 0 -11
-7 -18z m6 -69 c-3 -8 -6 -5 -6 6 -1 11 2 17 5 13 3 -3 4 -12 1 -19z m-18 -39
c-8 -5 -21 -9 -29 -9 -12 1 -11 4 4 15 10 8 23 12 29 8 5 -3 3 -9 -4 -14z"/>
<path d="M1445 2500 c-28 -4 -38 -8 -22 -8 24 -2 41 -22 18 -22 -5 0 -24 -14
-42 -31 -25 -23 -28 -30 -14 -25 19 5 20 2 17 -35 -4 -36 -2 -40 14 -37 11 2
18 11 16 21 -2 11 4 17 15 18 15 0 15 2 3 7 -8 4 -16 16 -17 27 -1 11 0 14 3
8 8 -19 34 -16 34 5 0 14 2 15 9 2 6 -8 8 -17 5 -21 -2 -4 -6 -23 -9 -43 -5
-28 -3 -36 9 -36 9 0 16 11 18 28 2 15 8 27 15 27 7 0 17 5 23 11 7 7 3 14
-15 24 -33 18 -32 34 1 26 19 -5 25 -3 22 6 -3 8 -17 12 -36 10 -18 -2 -32 1
-32 7 0 6 12 11 26 11 16 0 24 5 22 13 -6 15 -19 16 -83 7z"/>
<path d="M1740 2409 c4 -41 0 -45 -15 -14 l-13 30 -1 -27 c-1 -16 4 -28 12
-28 6 0 3 -7 -8 -16 -11 -8 -26 -12 -33 -9 -10 3 -12 0 -8 -10 3 -9 0 -25 -6
-35 -10 -15 -10 -22 0 -32 10 -10 14 -8 18 9 3 12 14 23 24 26 16 4 18 0 13
-27 -4 -27 -1 -34 21 -44 39 -18 70 -16 62 4 -4 10 1 18 14 21 18 5 18 6 3 30
-17 25 -17 26 7 19 23 -6 23 -6 8 7 -24 19 -23 30 2 22 14 -5 20 -2 20 9 0 9
-4 16 -10 16 -5 0 -7 6 -4 14 3 8 1 17 -5 21 -6 3 -14 -1 -17 -9 -9 -23 -23
-20 -17 4 8 29 -15 25 -29 -5 -15 -34 -29 -32 -22 4 4 17 1 32 -6 36 -8 5 -11
0 -10 -16z m10 -58 c0 -5 -7 -11 -15 -15 -15 -5 -20 5 -8 17 9 10 23 9 23 -2z
m53 -11 c-5 -20 -15 -25 -26 -14 -6 6 13 33 25 34 3 0 4 -9 1 -20z m-13 -34
c0 -3 -4 -8 -10 -11 -5 -3 -10 -1 -10 4 0 6 5 11 10 11 6 0 10 -2 10 -4z m-25
-37 c4 -6 14 -8 24 -4 12 5 13 3 5 -5 -13 -13 -54 -5 -54 11 0 12 17 11 25 -2z"/>
<path d="M845 2400 c-4 -6 -22 -9 -42 -8 -29 3 -39 -2 -60 -29 -23 -30 -23
-31 -4 -26 19 5 21 1 22 -53 1 -56 1 -58 13 -31 l13 29 13 -31 c7 -17 16 -31
20 -31 16 0 18 14 5 41 -18 35 -19 40 -1 33 7 -3 18 -16 25 -30 13 -30 31 -23
31 12 0 13 5 24 10 24 6 0 10 -4 10 -10 0 -5 5 -10 10 -10 15 0 12 20 -12 77
-22 51 -40 65 -53 43z m20 -40 c17 -33 19 -50 6 -50 -8 0 -31 52 -31 71 0 17
10 9 25 -21z m-62 13 c3 -5 -1 -13 -8 -20 -10 -10 -14 -9 -18 1 -8 21 15 37
26 19z m17 -33 c0 -5 -5 -10 -11 -10 -5 0 -7 5 -4 10 3 6 8 10 11 10 2 0 4 -4
4 -10z"/>
<path d="M1113 2296 c-236 -45 -464 -183 -611 -369 -94 -120 -165 -266 -198
-412 -24 -104 -25 -327 -1 -432 150 -659 874 -997 1470 -685 424 222 633 707
506 1174 -50 184 -183 385 -340 511 -98 80 -265 166 -384 197 -103 28 -336 36
-442 16z m340 -272 c-20 -15 -37 -40 -43 -65 -10 -35 -8 -47 17 -102 34 -75
34 -131 1 -196 -13 -25 -40 -56 -59 -68 -118 -75 -151 -140 -119 -230 l10 -28
-20 25 c-55 70 -76 163 -55 245 9 31 20 65 25 76 6 11 7 19 1 19 -13 0 -38
-67 -45 -125 -9 -66 15 -157 56 -214 l32 -45 -46 32 c-203 140 -219 415 -35
590 77 72 166 108 272 111 l40 1 -32 -26z m-748 -420 c21 -13 40 -16 98 -11
93 7 140 -9 193 -66 32 -33 45 -56 53 -99 21 -100 109 -171 190 -154 25 6 25
6 -4 -11 -22 -13 -52 -18 -110 -18 -67 0 -88 5 -130 27 -27 14 -59 35 -69 47
-11 12 -24 21 -29 21 -25 0 50 -60 105 -85 53 -24 69 -26 137 -23 42 3 85 8
96 12 40 15 -28 -34 -85 -62 -48 -24 -67 -27 -150 -27 -82 0 -103 4 -152 27
-115 53 -202 166 -228 292 -12 60 -9 115 11 189 l11 40 18 -41 c10 -22 30 -48
45 -58z m1131 32 c106 -49 175 -121 215 -226 l20 -52 -34 21 c-38 23 -87 27
-120 10 -12 -7 -41 -29 -64 -50 -85 -77 -193 -73 -290 12 -69 60 -156 62 -220
6 l-36 -32 16 31 c21 41 74 91 122 117 31 17 58 21 122 22 85 0 106 8 52 20
-63 14 -175 -17 -236 -65 -14 -11 -37 -35 -51 -53 -22 -29 -23 -30 -17 -7 38
132 120 220 244 262 80 26 199 20 277 -16z m-276 -349 c77 -28 168 -121 200
-202 33 -85 34 -216 1 -298 -25 -64 -84 -143 -130 -176 l-30 -21 6 53 c5 47 2
56 -23 86 -15 18 -47 42 -70 52 -61 26 -97 83 -102 164 -3 43 1 71 12 92 41
80 25 178 -37 229 l-32 26 30 -7 c86 -18 173 -106 201 -201 9 -31 18 -53 21
-50 11 11 -29 114 -62 158 -39 53 -124 107 -170 109 -30 1 -30 1 -5 9 36 12
126 1 190 -23z m-204 -117 c64 -250 -145 -489 -409 -467 -67 6 -164 42 -212
81 -19 15 -19 15 13 16 63 0 122 52 122 107 0 37 22 93 47 123 44 53 98 74
181 72 114 -3 177 33 202 116 7 22 8 17 9 -28 1 -94 -68 -206 -150 -242 -27
-12 -39 -28 -21 -28 21 0 108 73 134 111 35 52 61 139 56 185 -6 52 9 27 28
-46z"/>
<path d="M1230 1787 c0 -14 -8 -31 -17 -36 -17 -10 -16 -11 4 -17 12 -3 25
-15 29 -27 6 -18 7 -18 16 -4 5 10 21 17 35 17 21 0 24 2 13 15 -7 8 -10 24
-7 36 5 18 2 20 -16 15 -12 -3 -29 1 -39 11 -17 15 -18 14 -18 -10z"/>
<path d="M830 1437 c0 -18 -7 -28 -22 -33 -23 -7 -22 -7 5 -16 18 -7 27 -17
27 -30 0 -20 1 -20 18 -5 10 10 29 17 42 17 22 0 22 1 6 19 -14 15 -15 24 -7
39 9 17 7 19 -14 14 -14 -2 -32 1 -40 8 -13 10 -15 8 -15 -13z"/>
<path d="M1690 1512 c0 -11 -10 -27 -22 -35 -19 -13 -20 -16 -6 -16 10 -1 24
-13 32 -28 12 -24 15 -26 21 -10 4 9 18 17 31 17 25 0 32 14 13 26 -6 3 -8 17
-4 31 5 21 3 24 -15 18 -12 -4 -27 -1 -35 5 -12 10 -15 9 -15 -8z"/>
<path d="M1565 998 c5 -21 2 -29 -17 -39 l-23 -13 25 -6 c16 -4 26 -14 28 -29
l4 -23 15 21 c10 15 21 20 34 16 20 -7 26 9 8 21 -6 3 -9 17 -6 30 4 21 1 23
-15 18 -12 -3 -27 1 -39 12 -20 18 -20 18 -14 -8z"/>
<path d="M1034 953 c5 -11 -1 -23 -15 -34 l-22 -17 21 -6 c11 -4 24 -17 28
-28 6 -20 8 -20 19 -5 7 9 22 17 34 17 19 0 20 3 11 20 -6 12 -8 29 -5 39 4
15 1 17 -19 14 -13 -3 -27 0 -30 6 -11 18 -29 13 -22 -6z"/>
<path d="M2005 2233 c-29 -24 -29 -24 -5 -17 22 6 23 5 11 -10 -8 -10 -21 -14
-32 -11 -13 4 -19 1 -19 -9 0 -9 5 -16 12 -16 6 0 2 -10 -10 -23 -26 -28 -28
-37 -6 -37 8 0 27 14 41 30 28 33 44 37 63 15 10 -11 9 -18 -4 -30 -9 -9 -16
-21 -16 -26 0 -5 -5 -9 -10 -9 -6 0 -4 11 5 24 13 19 13 25 2 34 -10 9 -14 9
-15 -1 -1 -6 -5 -29 -8 -49 -5 -34 -4 -38 14 -38 12 0 28 9 36 21 9 13 19 18
27 13 9 -5 10 -2 5 11 -5 15 -4 16 9 5 12 -10 15 -10 15 4 0 9 -7 16 -15 16
-8 0 -15 7 -15 15 0 18 12 19 28 3 9 -9 12 -9 12 -1 0 7 -5 15 -10 18 -7 5 -8
11 -1 19 5 6 6 17 2 24 -6 10 -11 10 -21 -2 -18 -22 -31 -10 -24 21 6 23 4 25
-11 19 -10 -4 -21 -2 -24 3 -3 5 -20 -2 -36 -16z m70 -52 c10 -17 -12 -21 -25
-6 -10 12 -10 15 3 15 9 0 18 -4 22 -9z"/>
<path d="M500 2220 c0 -5 14 -19 30 -32 17 -12 30 -28 30 -35 0 -19 -8 -16
-40 17 -41 42 -71 40 -33 -3 17 -18 17 -19 -2 -33 -10 -8 -14 -14 -9 -14 6 0
15 5 22 12 9 9 16 7 33 -8 17 -15 20 -26 15 -59 -5 -32 -4 -36 5 -22 20 34 28
76 16 82 -7 3 12 3 41 0 39 -3 52 -1 49 8 -2 7 -20 12 -40 12 l-36 0 26 28
c22 22 23 27 10 27 -9 0 -17 -7 -17 -15 0 -8 -4 -15 -9 -15 -15 0 -22 32 -10
46 9 11 8 14 -5 14 -9 0 -16 -7 -16 -17 0 -15 -1 -15 -18 0 -21 19 -42 22 -42
7z"/>
<path d="M516 2095 c-11 -8 -15 -15 -9 -15 6 0 16 7 23 15 16 19 11 19 -14 0z"/>
<path d="M2248 2002 c-16 -10 -28 -22 -28 -29 0 -6 -19 -18 -42 -26 l-43 -15
49 -1 c42 -1 47 -3 36 -16 -15 -18 -40 -20 -40 -2 0 12 -20 -11 -20 -25 0 -14
40 -19 62 -7 22 11 22 11 6 -7 -23 -27 -27 -58 -6 -62 19 -4 138 73 138 88 0
15 -3 13 -66 -29 -55 -37 -74 -42 -74 -21 0 5 8 8 18 8 24 -2 92 41 92 58 0
18 -11 18 -36 -1 -23 -17 -34 -19 -34 -5 0 6 6 10 14 10 8 0 24 9 37 19 l24
20 -22 16 c-13 9 -23 23 -23 31 0 17 -7 17 -42 -4z m40 -39 c-2 -10 -9 -18
-16 -18 -7 0 -17 -7 -22 -15 -5 -8 -10 -10 -10 -5 0 16 30 55 41 55 6 0 9 -8
7 -17z"/>
<path d="M283 1973 c-10 -34 -10 -36 3 -19 11 15 17 17 26 8 7 -7 17 -8 30 -1
10 5 18 6 18 1 0 -14 -26 -33 -34 -25 -4 4 -15 -3 -25 -16 -18 -23 -48 -21
-34 2 4 7 -2 5 -13 -3 -10 -8 -20 -15 -22 -16 -1 0 23 -17 53 -38 30 -20 55
-41 55 -46 0 -6 9 -10 20 -10 17 0 19 5 13 33 -7 37 -13 48 -13 23 0 -22 -24
-16 -28 7 -3 14 5 17 46 17 35 0 54 5 65 18 23 25 22 28 -12 45 -26 13 -28 13
-24 -3 5 -20 -25 -36 -40 -21 -7 7 -4 19 8 37 17 26 17 27 -3 22 -12 -3 -29 0
-39 8 -28 21 -37 17 -50 -23z m47 -72 c0 -14 -18 -23 -30 -16 -6 4 -8 11 -5
16 8 12 35 12 35 0z"/>
<path d="M2405 1700 c6 -10 0 -11 -31 -7 -21 4 -33 4 -26 1 22 -10 12 -23 -23
-30 -42 -8 -41 -30 1 -27 79 4 104 9 104 21 0 9 7 11 19 7 11 -3 21 0 24 9 4
9 -2 16 -16 19 -12 2 -31 8 -41 12 -15 6 -17 5 -11 -5z"/>
<path d="M261 1653 c-36 -24 -99 -31 -117 -13 -8 8 -15 6 -23 -4 -10 -12 -6
-16 21 -25 43 -14 108 -68 108 -88 0 -9 3 -14 6 -10 11 11 -17 77 -39 92 -21
15 -21 15 10 15 32 0 83 18 83 29 -1 24 -18 25 -49 4z"/>
<path d="M2405 1618 c4 -21 1 -28 -15 -32 -11 -3 -29 -9 -40 -12 -15 -4 -20
-1 -20 12 0 16 -1 16 -14 -2 -24 -32 -3 -45 50 -29 38 11 45 11 53 -2 19 -34
20 8 1 49 -14 28 -19 34 -15 16z"/>
<path d="M2460 1593 c0 -4 5 -15 10 -23 8 -13 10 -13 10 2 0 9 -4 20 -10 23
-5 3 -10 3 -10 -2z"/>
<path d="M2378 1384 c-3 -3 1 -23 9 -44 13 -33 19 -38 42 -35 14 2 20 2 13 -1
-6 -3 -10 -10 -6 -15 13 -21 -20 -7 -47 21 -27 27 -30 27 -23 7 3 -12 11 -28
16 -34 7 -9 7 -18 -2 -27 -8 -10 -8 -21 -2 -32 9 -16 10 -15 16 4 9 26 30 28
70 7 38 -20 39 -20 31 14 -6 26 -4 28 19 24 16 -3 26 -1 26 6 0 6 -17 11 -38
11 -28 0 -39 4 -39 15 0 18 18 20 34 4 6 -6 13 -7 16 -2 6 9 -12 38 -28 44 -5
2 -9 7 -7 12 1 4 -16 7 -38 7 -22 0 -40 5 -40 10 0 11 -13 13 -22 4z m75 -41
c-7 -2 -21 -2 -30 0 -10 3 -4 5 12 5 17 0 24 -2 18 -5z m17 -83 c0 -5 -6 -10
-14 -10 -8 0 -18 5 -21 10 -3 6 3 10 14 10 12 0 21 -4 21 -10z"/>
<path d="M88 1368 c-4 -10 -5 -25 -1 -33 3 -10 1 -15 -7 -13 -7 2 -15 -3 -17
-9 -3 -7 2 -13 11 -13 21 0 20 -10 -1 -26 -17 -13 -17 -13 0 -14 12 0 17 -8
18 -27 1 -26 2 -25 9 6 5 19 6 40 3 48 -3 7 0 13 6 13 6 0 11 -21 12 -52 1
-29 3 -45 6 -35 6 24 21 21 26 -5 l4 -23 2 23 c1 26 18 29 24 5 3 -10 4 -2 4
17 -1 21 3 35 11 36 6 1 21 2 32 3 11 0 20 8 20 17 0 9 -9 18 -20 21 -15 4
-20 14 -20 40 0 40 -18 41 -37 2 l-13 -24 0 28 c0 17 -4 26 -10 22 -6 -4 -8
-16 -5 -28 6 -20 5 -21 -8 -5 -16 20 -28 14 -20 -10 4 -12 3 -14 -5 -7 -6 6
-12 21 -14 35 -3 21 -4 22 -10 8z m112 -43 c0 -22 -4 -25 -37 -24 -31 2 -33 3
-10 6 19 3 27 10 27 24 0 10 5 19 10 19 6 0 10 -11 10 -25z m-55 -55 c3 -5 1
-10 -4 -10 -6 0 -11 5 -11 10 0 6 2 10 4 10 3 0 8 -4 11 -10z"/>
<path d="M2325 1061 c-3 -6 -4 -15 -1 -20 3 -5 1 -23 -5 -41 -9 -23 -9 -34 0
-43 6 -6 11 -19 11 -28 0 -19 29 -28 78 -24 28 3 32 0 27 -16 -4 -10 -2 -19 3
-19 17 0 19 11 9 51 -7 28 -7 43 1 51 8 8 10 4 6 -13 -3 -17 -1 -15 7 6 7 17
16 36 21 42 11 14 14 12 -72 38 -30 9 -60 18 -67 21 -6 3 -14 0 -18 -5z m20
-51 c3 -5 1 -10 -4 -10 -6 0 -11 5 -11 10 0 6 2 10 4 10 3 0 8 -4 11 -10z
m105 -10 c13 -9 13 -10 0 -10 -8 0 -22 5 -30 10 -13 9 -13 10 0 10 8 0 22 -5
30 -10z m-20 -55 c0 -8 -4 -15 -10 -15 -5 0 -10 7 -10 15 0 8 5 15 10 15 6 0
10 -7 10 -15z"/>
<path d="M160 1033 c-33 -7 -42 -24 -24 -45 17 -18 11 -38 -12 -38 -8 0 -14
-7 -14 -15 0 -16 23 -14 78 6 31 12 32 11 32 -5 0 -19 -32 -30 -42 -14 -5 8
-8 1 -8 -19 l0 -32 45 16 c47 15 56 27 30 37 -25 9 -17 26 15 33 21 4 30 11
30 26 0 21 -6 21 -97 1 -27 -5 -33 -3 -33 10 0 9 7 17 15 17 31 3 35 4 36 14
0 12 -16 14 -51 8z"/>
<path d="M2301 943 c0 -6 -4 -20 -7 -30 -5 -14 -4 -15 5 -7 7 7 11 20 8 30 -3
11 -5 14 -6 7z"/>
<path d="M340 683 c0 -13 -10 -28 -22 -34 l-23 -12 23 -10 c14 -7 22 -19 22
-36 1 -25 1 -26 16 -6 10 13 24 19 40 17 23 -3 24 -2 12 17 -10 17 -10 25 0
41 12 19 11 20 -13 14 -19 -5 -30 -1 -40 12 -14 18 -14 18 -15 -3z"/>
<path d="M2247 686 c-5 -12 -14 -17 -30 -14 -20 4 -22 0 -22 -34 0 -31 3 -38
19 -38 10 0 25 -8 32 -17 12 -17 13 -16 14 4 0 12 9 27 21 34 l21 11 -20 14
c-12 8 -22 24 -24 37 -3 20 -4 20 -11 3z"/>
<path d="M1945 459 c-59 -37 -72 -85 -34 -133 29 -37 78 -36 121 3 29 26 31
32 20 48 -7 10 -15 26 -18 35 -6 16 -8 16 -30 2 l-23 -16 27 -23 c23 -19 24
-25 13 -39 -7 -9 -24 -16 -36 -16 -29 0 -75 46 -75 75 0 33 34 59 66 51 25 -7
26 -6 14 11 -8 10 -14 19 -15 19 0 1 -13 -7 -30 -17z"/>
<path d="M621 429 c-7 -16 -27 -45 -45 -63 -30 -32 -30 -35 -13 -46 11 -6 20
-10 21 -8 1 2 8 15 16 31 16 32 18 32 50 7 l25 -20 -26 -23 -25 -23 23 -17
c22 -17 23 -17 23 0 1 27 68 115 83 108 7 -4 1 3 -12 14 l-24 21 -14 -27 c-20
-38 -19 -38 -48 -19 -30 20 -31 26 -5 54 19 20 19 22 2 31 -14 8 -20 4 -31
-20z"/>
<path d="M1817 365 c-12 -8 -14 -15 -8 -20 14 -8 44 -65 38 -71 -2 -2 -30 7
-61 21 -42 18 -62 23 -74 15 -14 -8 -15 -9 -2 -10 18 0 74 -106 64 -122 -4 -6
3 -5 16 2 19 10 20 13 7 23 -15 12 -51 87 -41 87 2 0 26 -11 52 -24 26 -13 57
-27 70 -31 l23 -7 -27 54 c-15 29 -30 63 -33 75 -5 19 -8 20 -24 8z"/>
<path d="M765 315 c-31 -30 -33 -77 -5 -105 11 -11 26 -20 32 -20 7 0 2 7 -10
16 -27 19 -28 39 -3 81 27 43 59 52 82 24 22 -27 12 -61 -29 -103 -20 -22 -22
-28 -9 -28 25 0 66 42 73 75 14 72 -78 114 -131 60z"/>
<path d="M947 279 c13 -13 -12 -108 -33 -125 -13 -10 -12 -13 2 -18 26 -10 32
-7 28 12 -3 9 1 35 9 57 l14 40 21 -47 c11 -25 23 -56 27 -67 11 -35 22 -24
37 37 9 31 17 63 19 71 2 7 -2 16 -10 19 -8 2 -11 0 -8 -5 3 -5 0 -29 -7 -54
l-14 -44 -26 60 c-15 32 -32 63 -39 67 -18 12 -33 10 -20 -3z"/>
<path d="M1570 258 c-11 -12 -20 -34 -20 -49 0 -33 35 -79 60 -79 17 0 17 3
-5 25 -17 16 -25 35 -25 58 0 39 15 57 47 57 42 0 71 -93 38 -120 -9 -7 -13
-15 -10 -18 3 -3 14 3 25 13 24 22 27 81 4 113 -21 31 -85 31 -114 0z"/>
<path d="M1493 253 c-13 -2 -23 -10 -23 -17 0 -7 -11 -23 -25 -36 l-25 -23 0
31 c0 18 5 32 12 32 6 0 9 2 6 5 -3 4 -18 3 -32 -1 -20 -5 -24 -10 -16 -19 5
-7 11 -42 13 -79 2 -60 4 -66 22 -64 12 2 18 9 16 18 -2 8 -6 26 -9 39 l-5 24
32 -24 c19 -14 29 -29 26 -37 -4 -10 0 -12 11 -8 8 3 25 6 36 6 16 0 11 8 -24
36 -23 20 -44 40 -46 44 -2 5 11 24 29 44 17 20 29 35 28 35 -2 -1 -14 -4 -26
-6z"/>
<path d="M1131 214 c-38 -49 -19 -114 39 -129 23 -5 24 -5 5 6 -28 17 -35 29
-35 67 0 34 29 72 55 72 8 0 24 -9 34 -19 19 -19 19 -19 23 3 4 21 1 23 -48
25 -46 1 -55 -2 -73 -25z"/>
<path d="M1227 137 c3 -15 -2 -31 -14 -42 -17 -18 -17 -19 0 -12 10 4 22 7 27
7 4 0 10 16 12 35 3 28 0 35 -13 35 -12 0 -15 -6 -12 -23z"/>
</g>
</svg>
